<svg width="346" height="68" viewBox="0 0 346 68" fill="none" xmlns="http://www.w3.org/2000/svg">
<g clip-path="url(#clip0_193:2333)">
<path d="M9.36842 2.36417C9.81824 2.36417 10.1383 2.51085 10.3286 2.81284L27.2489 26.4459L44.2297 2.81284C44.42 2.51085 44.7141 2.36417 45.1293 2.36417H53.9874C54.3593 2.36417 54.5496 2.55399 54.5496 2.92501V4.95267C54.5496 5.33232 54.3593 5.51351 53.9874 5.51351H49.5324V40.4583H53.9874C54.3593 40.4583 54.5496 40.6481 54.5496 41.0192V43.0468C54.5496 43.4265 54.3593 43.6077 53.9874 43.6077H40.7349C40.3543 43.6077 40.1726 43.4178 40.1726 43.0468V41.0192C40.1726 40.6481 40.3629 40.4583 40.7349 40.4583H45.5878V7.31684L29.5066 29.4917C29.2471 29.7937 28.9443 29.9404 28.607 29.9404H26.0119C25.6312 29.9404 25.3112 29.7937 25.0517 29.4917L8.9705 7.25644V40.4669H13.7628C14.1781 40.4669 14.3857 40.6568 14.3857 41.0278V43.0555C14.3857 43.4351 14.1781 43.6163 13.7628 43.6163H0.562278C0.190309 43.6163 0 43.4265 0 43.0555V41.0278C0 40.6568 0.190309 40.4669 0.562278 40.4669H4.96535V5.51351H0.562278C0.190309 5.51351 0 5.32369 0 4.95267V2.92501C0 2.55399 0.190309 2.36417 0.562278 2.36417H9.36842Z" fill="#037A84"/>
<path d="M58.5115 29.7678C58.5115 27.7833 58.8662 25.9023 59.5842 24.1421C60.3022 22.3819 61.2883 20.8375 62.5426 19.526C63.8056 18.2145 65.2762 17.1791 66.9716 16.4284C68.6671 15.6777 70.4924 15.3067 72.4474 15.3067C74.7397 15.3067 76.8418 15.7985 78.7362 16.7735C80.6393 17.7485 82.2224 19.0773 83.5026 20.7684V16.4888C83.5026 16.1523 83.6497 15.9797 83.9524 15.9797H86.7206C87.0233 15.9797 87.1704 16.1523 87.1704 16.4888V35.7904L87.3953 40.6309H91.5129C91.8157 40.6309 91.9627 40.7776 91.9627 41.0796V43.159C91.9627 43.461 91.8157 43.6077 91.5129 43.6077H84.6877C84.3071 43.6077 84.1082 43.4179 84.0649 43.0468L83.5545 38.655C82.2743 40.3462 80.6739 41.6922 78.7622 42.7103C76.8418 43.7199 74.7397 44.2289 72.4474 44.2289C70.4924 44.2289 68.6671 43.8493 66.9716 43.1072C65.2762 42.3566 63.8056 41.3298 62.5426 40.0097C61.2797 38.6982 60.2935 37.1623 59.5842 35.3935C58.8662 33.6333 58.5115 31.761 58.5115 29.7678ZM73.0615 18.6804C69.9733 18.6804 67.4042 19.7589 65.3281 21.916C63.2606 24.0731 62.2226 26.7134 62.2226 29.8196C62.2226 32.8999 63.2606 35.5229 65.3281 37.6973C67.3955 39.8716 69.9733 40.9588 73.0615 40.9588C76.0719 40.9588 78.5805 39.8975 80.5961 37.7749C82.6116 35.6523 83.6151 33.0034 83.6151 29.811C83.6151 26.584 82.6116 23.9178 80.5961 21.8211C78.5805 19.733 76.0719 18.6804 73.0615 18.6804Z" fill="#037A84"/>
<path d="M106.521 40.6309C106.859 40.6309 107.032 40.7776 107.032 41.0795V43.159C107.032 43.461 106.859 43.6077 106.521 43.6077H94.6703C94.3676 43.6077 94.2205 43.461 94.2205 43.159V41.0795C94.2205 40.7776 94.3676 40.6309 94.6703 40.6309H98.736V18.9651H94.6703C94.3676 18.9651 94.2205 18.8184 94.2205 18.5164V16.4888C94.2205 16.1523 94.3676 15.9797 94.6703 15.9797H101.331C101.669 15.9797 101.859 16.1523 101.893 16.4888L102.343 20.8806C103.399 19.4569 104.722 18.1972 106.322 17.11C107.923 16.0228 109.826 15.4792 112.049 15.4792C112.386 15.4792 112.559 15.6259 112.559 15.9279V23.0204C112.559 23.3224 112.386 23.4691 112.049 23.4691H110.016C109.679 23.4691 109.506 23.3224 109.506 23.0204V19.1894C108.001 19.4914 106.608 20.2594 105.328 21.4932C104.047 22.7271 103.087 24.3233 102.447 26.2733V40.6222H106.521V40.6309Z" fill="#037A84"/>
<path d="M114.982 43.6163C114.679 43.6163 114.532 43.4696 114.532 43.1676V41.0882C114.532 40.7862 114.679 40.6395 114.982 40.6395H119.047V3.03718H114.982C114.679 3.03718 114.532 2.86461 114.532 2.52811V0.509072C114.532 0.172567 114.679 0 114.982 0H122.257C122.594 0 122.767 0.172567 122.767 0.509072V27.6884L133.545 18.9651H129.878C129.54 18.9651 129.367 18.8184 129.367 18.5164V16.4888C129.367 16.1523 129.54 15.9797 129.878 15.9797H141.668C142.005 15.9797 142.178 16.1523 142.178 16.4888V18.5164C142.178 18.8184 142.005 18.9651 141.668 18.9651H138.398L126.045 28.9826L139.246 40.6309H142.352C142.654 40.6309 142.801 40.7776 142.801 41.0796V43.159C142.801 43.461 142.654 43.6077 142.352 43.6077H130.5C130.198 43.6077 130.051 43.461 130.051 43.159V41.0796C130.051 40.7776 130.198 40.6309 130.5 40.6309H134.281L122.767 30.4408V40.6309H126.945C127.248 40.6309 127.395 40.7776 127.395 41.0796V43.159C127.395 43.461 127.248 43.6077 126.945 43.6077H114.982V43.6163Z" fill="#037A84"/>
<path d="M169.375 37.8698C168.095 39.7853 166.452 41.3212 164.436 42.486C162.421 43.6508 160.232 44.2289 157.862 44.2289C153.986 44.2289 150.716 42.8225 148.043 40.0096C145.371 37.1968 144.038 33.7455 144.038 29.6556C144.038 25.6435 145.353 22.2439 147.992 19.4656C150.621 16.6872 153.934 15.2981 157.922 15.2981C162.023 15.2981 165.344 16.739 167.879 19.6295C170.422 22.52 171.685 26.0058 171.685 30.0957C171.685 30.3977 171.512 30.5444 171.175 30.5444H147.758C147.948 33.7368 149.073 36.2477 151.14 38.0855C153.208 39.9234 155.517 40.8466 158.078 40.8466C159.661 40.8466 161.175 40.4583 162.619 39.6904C164.064 38.9225 165.284 37.7318 166.261 36.1183C166.452 35.8939 166.564 35.7818 166.599 35.7818C166.677 35.7818 166.789 35.8422 166.936 35.9543L169.133 37.1882C169.445 37.3521 169.523 37.5765 169.375 37.8698ZM157.922 18.6804C155.215 18.6804 152.948 19.5518 151.123 21.2948C149.298 23.0377 148.217 25.2465 147.879 27.9041H167.905C167.568 25.2811 166.495 23.0808 164.687 21.3207C162.888 19.5691 160.63 18.6804 157.922 18.6804Z" fill="#037A84"/>
<path d="M180.145 5.62568C180.145 5.28917 180.292 5.11661 180.595 5.11661H183.363C183.666 5.11661 183.813 5.28917 183.813 5.62568V15.9797H189.678C189.981 15.9797 190.128 16.1523 190.128 16.4888V18.7408C190.128 19.0428 189.981 19.1894 189.678 19.1894H183.813V36.1269C183.813 37.7059 184.029 38.888 184.462 39.6731C184.894 40.4583 185.958 40.8552 187.654 40.8552C187.957 40.8552 188.277 40.8466 188.614 40.8293C188.951 40.8121 189.332 40.7862 189.739 40.7431H190.024C190.137 40.7431 190.197 40.8725 190.197 41.14V43.1676C190.197 43.4696 190.05 43.6335 189.747 43.6767C188.545 43.8665 187.55 43.9614 186.754 43.9614C184.462 43.9614 182.784 43.3488 181.737 42.1322C180.682 40.9156 180.154 38.8621 180.154 35.9716V19.1894H175.699C175.362 19.1894 175.189 19.0428 175.189 18.7408V16.4888C175.189 16.1523 175.362 15.9797 175.699 15.9797H180.154V5.62568H180.145Z" fill="#037A84"/>
<path d="M201.399 8.05024C201.399 7.71374 201.59 7.54117 201.962 7.54117H208.225C208.597 7.54117 208.787 7.71374 208.787 8.05024V16.0401H214.487C214.859 16.0401 215.05 16.2127 215.05 16.5492V21.5018C215.05 21.8815 214.859 22.0627 214.487 22.0627H208.787V34.5565C208.787 35.9112 208.986 37.0329 209.375 37.9302C209.773 38.8276 210.742 39.2849 212.282 39.2849C213.112 39.2849 213.899 39.1899 214.652 39.0001C214.764 38.9656 214.877 38.9397 214.989 38.9397C215.136 38.9397 215.214 39.0864 215.214 39.3884V43.8924C215.214 44.272 215.024 44.4964 214.652 44.5654C213.112 44.8674 211.564 45.0141 210.024 45.0141C206.901 45.0141 204.687 44.1685 203.363 42.4773C202.048 40.7862 201.391 38.0683 201.391 34.3149V22.0627H197.273C196.936 22.0627 196.763 21.8729 196.763 21.5018V16.5492C196.763 16.2127 196.936 16.0401 197.273 16.0401H201.391V8.05024H201.399Z" fill="#037A84"/>
<path d="M217.93 44.4619C217.593 44.4619 217.42 44.272 217.42 43.901V39.4574C217.42 39.0864 217.593 38.8966 217.93 38.8966H221.425V21.614H217.982C217.602 21.614 217.42 21.4242 217.42 21.0532V16.5492C217.42 16.2127 217.61 16.0401 217.982 16.0401H228.25C228.588 16.0401 228.761 16.2127 228.761 16.5492V38.888H232.255C232.593 38.888 232.766 39.0778 232.766 39.4488V43.8924C232.766 44.272 232.593 44.4532 232.255 44.4532H217.93V44.4619ZM228.25 3.20975C228.588 3.20975 228.761 3.39957 228.761 3.77059V10.5784C228.761 10.958 228.588 11.1392 228.25 11.1392H221.987C221.607 11.1392 221.425 10.9494 221.425 10.5784V3.77059C221.425 3.39957 221.615 3.20975 221.987 3.20975H228.25Z" fill="#037A84"/>
<path d="M235.534 44.4619C235.153 44.4619 234.972 44.272 234.972 43.901V39.4574C234.972 39.0864 235.162 38.8966 235.534 38.8966H238.977V25.0999L238.804 21.614H235.534C235.153 21.614 234.972 21.4242 234.972 21.0532V16.5492C234.972 16.2127 235.162 16.0401 235.534 16.0401H245.015C245.387 16.0401 245.62 16.2127 245.69 16.5492L246.2 18.9133C247.368 17.714 248.769 16.7908 250.404 16.1523C252.039 15.5138 253.743 15.1945 255.508 15.1945C259.418 15.1945 262.013 16.6959 263.293 19.6985C264.686 18.1195 266.243 16.9806 267.973 16.2644C269.703 15.5483 271.494 15.1945 273.336 15.1945C276.347 15.1945 278.553 16.0574 279.963 17.783C281.373 19.5087 282.082 21.8383 282.082 24.7634V38.888H285.577C285.914 38.888 286.087 39.0778 286.087 39.4488V43.8924C286.087 44.272 285.914 44.4532 285.577 44.4532H271.355C270.975 44.4532 270.793 44.2634 270.793 43.8924V39.4488C270.793 39.0778 270.983 38.888 271.355 38.888H274.738V25.212C274.738 22.96 273.457 21.8383 270.897 21.8383C269.539 21.8383 268.241 22.1835 267.004 22.8824C265.767 23.5813 264.824 24.5822 264.184 25.8937V38.8966H267.567C267.938 38.8966 268.129 39.0864 268.129 39.4574V43.901C268.129 44.2807 267.938 44.4619 267.567 44.4619H253.458C253.077 44.4619 252.895 44.272 252.895 43.901V39.4574C252.895 39.0864 253.086 38.8966 253.458 38.8966H256.84V25.212C256.84 22.96 255.56 21.8383 252.999 21.8383C251.641 21.8383 250.344 22.1835 249.107 22.8824C247.869 23.5813 246.927 24.5994 246.286 25.9454V38.888H249.729C250.067 38.888 250.24 39.0778 250.24 39.4488V43.8924C250.24 44.272 250.067 44.4532 249.729 44.4532H235.534V44.4619Z" fill="#037A84"/>
<path d="M303.743 38.5515C306.26 38.5515 308.215 37.4988 309.608 35.4021C309.72 35.1778 309.833 35.0656 309.945 35.0656C310.092 35.0656 310.23 35.1001 310.343 35.1778L315.36 38.1028C315.663 38.3271 315.715 38.5515 315.533 38.7758C314.175 40.8035 312.471 42.3911 310.395 43.53C308.327 44.6776 306.07 45.2471 303.622 45.2471C299.556 45.2471 296.165 43.7975 293.44 40.8897C290.715 37.982 289.348 34.3753 289.348 30.0525C289.348 25.816 290.715 22.2784 293.44 19.4483C296.165 16.6182 299.677 15.2032 303.959 15.2032C306.251 15.2032 308.275 15.6346 310.023 16.4974C311.77 17.3602 313.241 18.5423 314.426 20.0437C315.611 21.545 316.511 23.2879 317.133 25.2811C317.756 27.2742 318.068 29.3709 318.068 31.5798C318.068 31.9594 317.895 32.1406 317.557 32.1406H296.684C296.874 34.0561 297.644 35.6006 298.994 36.7827C300.36 37.9561 301.935 38.5515 303.743 38.5515ZM303.803 21.8384C302.073 21.8384 300.577 22.3474 299.314 23.3569C298.051 24.3665 297.22 25.6866 296.805 27.3001H310.68C310.3 25.6866 309.495 24.3751 308.258 23.3569C307.012 22.3388 305.533 21.8384 303.803 21.8384Z" fill="#037A84"/>
<path d="M321.571 35.1691C321.571 34.8326 321.744 34.6601 322.082 34.6601H326.597C326.969 34.6601 327.159 34.8326 327.159 35.1691V37.4211C327.947 38.0251 328.933 38.5083 330.118 38.888C331.303 39.2676 332.497 39.4488 333.699 39.4488C335.17 39.4488 336.363 39.1641 337.28 38.6032C338.197 38.0424 338.664 37.309 338.664 36.4116C338.664 35.6264 338.249 34.9621 337.427 34.4098C336.597 33.8663 335.23 33.3917 333.31 32.9775C325.974 31.364 322.306 28.2492 322.306 23.633C322.306 21.2344 323.215 19.224 325.04 17.6105C326.865 15.997 329.054 15.1945 331.614 15.1945C334.019 15.1945 336.433 15.9279 338.837 17.3861V16.5405C338.837 16.204 339.01 16.0315 339.348 16.0315H343.863C344.201 16.0315 344.374 16.204 344.374 16.5405V24.9273C344.374 25.3069 344.201 25.4881 343.863 25.4881H339.348C339.01 25.4881 338.837 25.2983 338.837 24.9273V23.4087C337.332 21.8297 335.455 21.0445 333.197 21.0445C332.107 21.0445 331.234 21.2861 330.576 21.7779C329.919 22.2698 329.59 22.8996 329.59 23.6934C329.59 25.4191 331.562 26.7134 335.516 27.5762C342.514 29.1552 346.009 32.2441 346.009 36.8603C346.009 39.4143 345.048 41.4506 343.128 42.9692C341.208 44.4878 338.786 45.247 335.853 45.247C332.877 45.247 329.988 44.5136 327.168 43.0555V43.901C327.168 44.2807 326.978 44.4619 326.606 44.4619H322.09C321.753 44.4619 321.58 44.272 321.58 43.901V35.1691H321.571Z" fill="#037A84"/>
<path d="M3.17471 55.0316L7.42207 61.7962H7.50858V55.0316H9.33382V64.9197H7.26636L3.04495 58.1551H2.95845V64.9197H1.11591V55.0316H3.17471Z" fill="#BE1E2D"/>
<path d="M14.8701 55.0316V59.0265H19.2645V55.0316H21.1503V64.9197H19.2645V60.8126H14.8701V64.9197H12.9843V55.0316H14.8701Z" fill="#BE1E2D"/>
<path d="M24.6451 66.9215C24.6451 66.3261 25.0863 65.8602 25.735 65.8602C26.4011 65.8602 26.8423 66.3261 26.8423 66.9215C26.8423 67.5427 26.4011 67.9914 25.735 67.9914C25.0863 68 24.6451 67.5427 24.6451 66.9215ZM26.6866 55.0316V64.9197H24.8008V55.0316H26.6866Z" fill="#BE1E2D"/>
<path d="M34.0914 55.0316C35.9858 55.0316 37.4045 56.3172 37.4045 58.2241C37.4045 60.1051 35.9339 61.4597 34.0914 61.4597H32.2229V64.9197H30.3371V55.0316H34.0914ZM35.4841 58.2241C35.4841 57.275 34.8439 56.6451 33.901 56.6451H32.2315V59.8549H33.901C34.8439 59.8462 35.4841 59.1819 35.4841 58.2241Z" fill="#BE1E2D"/>
<path d="M44.8871 61.7962H46.7123C46.7296 62.6849 47.4649 63.3752 48.7106 63.3752C49.7746 63.3752 50.4493 62.9265 50.4493 62.1759C50.4493 59.9152 45.1812 61.7358 45.1812 57.6978C45.1812 56.1274 46.4269 54.8418 48.6068 54.8418C50.4926 54.8418 52.0929 55.834 52.1448 57.8962H50.259C50.2417 57.0765 49.6621 56.5243 48.5981 56.5243C47.5514 56.5243 47.0411 57.0506 47.0411 57.6719C47.0411 59.734 52.3784 58.0429 52.3784 62.0378C52.3784 63.7894 51.0203 65.1009 48.6414 65.1009C46.3836 65.1009 44.8871 63.7635 44.8871 61.7962Z" fill="#BE1E2D"/>
<path d="M54.9648 59.9756C54.9648 57.0679 57.188 54.8504 60.1897 54.8504C63.1914 54.8504 65.4146 57.0938 65.4146 59.9756C65.4146 62.8834 63.1741 65.1009 60.1724 65.1009C57.1707 65.1009 54.9648 62.9093 54.9648 59.9756ZM63.4509 59.9756C63.4509 58.086 62.0928 56.6451 60.1897 56.6451C58.278 56.6451 56.9198 58.086 56.9198 59.9756C56.9198 61.8998 58.278 63.3062 60.1897 63.3062C62.0928 63.3062 63.4509 61.8911 63.4509 59.9756ZM61.0028 52.0893L62.4302 54.1256H61.1153L60.233 53.3318H60.1378L59.2728 54.1256H57.9406L59.3679 52.0893H61.0028ZM64.8523 50.9331L63.5461 52.9953H62.2572L63.0097 50.9331H64.8523Z" fill="#BE1E2D"/>
<path d="M70.6221 55.0316L74.8695 61.7962H74.956V55.0316H76.7812V64.9197H74.7138L70.4924 58.1551H70.4059V64.9197H68.5633V55.0316H70.6221Z" fill="#BE1E2D"/>
<path d="M79.93 59.9756C79.93 57.0679 82.0839 54.8504 85.1116 54.8504C87.6202 54.8504 89.4022 56.3517 89.9385 58.3363H87.8711C87.4732 57.344 86.487 56.6451 85.1116 56.6451C83.1739 56.6451 81.885 58.0688 81.885 59.9756C81.885 61.9084 83.1912 63.3493 85.1289 63.3493C86.7465 63.3493 87.9489 62.4002 88.0873 61.1491H84.9386V59.596H90.1807C90.2673 63.0991 88.096 65.1095 85.1202 65.1095C82.0753 65.1009 79.93 62.9093 79.93 59.9756Z" fill="#BE1E2D"/>
<path d="M97.7758 56.6796V55.023H105.38V56.6796H102.508V64.9197H100.622V56.6796H97.7758Z" fill="#BE1E2D"/>
<path d="M110.181 55.0316V59.0265H114.575V55.0316H116.461V64.9197H114.575V60.8126H110.181V64.9197H108.295V55.0316H110.181Z" fill="#BE1E2D"/>
<path d="M119.956 66.9215C119.956 66.3261 120.397 65.8602 121.046 65.8602C121.712 65.8602 122.153 66.3261 122.153 66.9215C122.153 67.5427 121.712 67.9914 121.046 67.9914C120.388 68 119.956 67.5427 119.956 66.9215ZM121.988 55.0316V64.9197H120.103V55.0316H121.988Z" fill="#BE1E2D"/>
<path d="M130.094 56.6796V55.023H137.698V56.6796H134.826V64.9197H132.94V56.6796H130.094Z" fill="#BE1E2D"/>
<path d="M144.332 55.0316C146.357 55.0316 147.749 56.3172 147.749 58.181C147.749 59.5529 146.945 60.5969 145.898 61.0628L148.078 64.9197H145.967L144.108 61.3907H142.507V64.9197H140.621V55.0316H144.332ZM145.82 58.181C145.82 57.2922 145.215 56.6451 144.159 56.6451H142.499V59.7858H144.185C145.12 59.7772 145.82 59.225 145.82 58.181Z" fill="#BE1E2D"/>
<path d="M158.848 55.9031V61.2181C158.848 63.5392 157.334 65.1009 154.921 65.1009C152.498 65.1009 150.993 63.5478 150.993 61.2268V55.023H152.879V61.2095C152.879 62.521 153.588 63.3321 154.921 63.3321C156.27 63.3321 156.971 62.5296 156.971 61.2009V55.023H157.637C158.173 55.023 158.857 54.6433 158.857 53.7546H160.033C160.033 54.8418 159.54 55.5493 158.848 55.9031Z" fill="#BE1E2D"/>
<path d="M172.334 59.9756C172.334 62.8834 170.093 65.1009 167.092 65.1009C164.09 65.1009 161.876 62.9093 161.876 59.9756C161.876 57.0679 164.099 54.8504 167.1 54.8504C167.611 54.8504 168.095 54.9108 168.545 55.0316C169.073 55.0057 169.704 54.6261 169.704 53.7632H170.881C170.881 54.652 170.543 55.2904 170.033 55.6874C171.452 56.5933 172.334 58.1551 172.334 59.9756ZM170.362 59.9756C170.362 58.086 169.003 56.6451 167.1 56.6451C165.189 56.6451 163.831 58.086 163.831 59.9756C163.831 61.8998 165.189 63.3062 167.1 63.3062C169.003 63.3062 170.362 61.8911 170.362 59.9756ZM166.356 53.7028L165.05 51.6407H166.893L167.645 53.7028H166.356Z" fill="#BE1E2D"/>
<path d="M177.533 55.0316L181.78 61.7962H181.867V55.0316H183.692V64.9197H181.624L177.403 58.1551H177.317V64.9197H175.474V55.0316H177.533Z" fill="#BE1E2D"/>
<path d="M186.832 59.9756C186.832 57.0679 188.986 54.8504 192.014 54.8504C194.522 54.8504 196.304 56.3517 196.841 58.3363H194.773C194.375 57.344 193.389 56.6451 192.014 56.6451C190.076 56.6451 188.787 58.0688 188.787 59.9756C188.787 61.9084 190.093 63.3493 192.031 63.3493C193.649 63.3493 194.851 62.4002 194.989 61.1491H191.849V59.596H197.091C197.178 63.0991 195.007 65.1095 192.031 65.1095C188.986 65.1009 186.832 62.9093 186.832 59.9756Z" fill="#BE1E2D"/>
<path d="M346 54.5053H200.387V64.5573H346V54.5053Z" fill="#BE1E2D"/>
</g>
<defs>
<clipPath id="clip0_193:2333">
<rect width="346" height="68" fill="white"/>
</clipPath>
</defs>
</svg>
